PathFileType	4	(X/Y/Z)	C:/Users/opensim2020/Desktop/walking_exp_matlab/subject02_walking11_straight_02.trc	
DataRate	CameraRate	NumFrames	NumMarkers	Units	OrigDataRate	OrigDataStartFrame	OrigNumFrames	
100.00	100.00	5	42	mm	100.00	1749	230	
Frame#	Time	LFHD			RFHD			LBHD			RBHD			C7			T10			CLAV			STRN			RBAK			LSHO			LUPA			LELB			LFRM			LWRA			LWRB			LFIN			RSHO			RUPA			RELB			RFRM			RWRA			RWRB			RFIN			LASI			RASI			LPSI			RPSI			LTHI			LKNE			LTIB			LANK			LHEE			LTOE			RTHI			RKNE			RTIB			RANK			RHEE			RTOE			*39			*40			*41			
		X1	Y1	Z1	X2	Y2	Z2	X3	Y3	Z3	X4	Y4	Z4	X5	Y5	Z5	X6	Y6	Z6	X7	Y7	Z7	X8	Y8	Z8	X9	Y9	Z9	X10	Y10	Z10	X11	Y11	Z11	X12	Y12	Z12	X13	Y13	Z13	X14	Y14	Z14	X15	Y15	Z15	X16	Y16	Z16	X17	Y17	Z17	X18	Y18	Z18	X19	Y19	Z19	X20	Y20	Z20	X21	Y21	Z21	X22	Y22	Z22	X23	Y23	Z23	X24	Y24	Z24	X25	Y25	Z25	X26	Y26	Z26	X27	Y27	Z27	X28	Y28	Z28	X29	Y29	Z29	X30	Y30	Z30	X31	Y31	Z31	X32	Y32	Z32	X33	Y33	Z33	X34	Y34	Z34	X35	Y35	Z35	X36	Y36	Z36	X37	Y37	Z37	X38	Y38	Z38	X39	Y39	Z39	X40	Y40	Z40	X41	Y41	Z41	X42	Y42	Z42	

116	1.150	-1028.54236	3.50790	1722.62634	-1169.77844	8.53166	1696.36340	-1014.29633	142.03612	1664.50146	-1155.70618	159.07759	1638.18103	-1087.73633	206.01755	1519.42236	-1097.50818	269.67880	1244.39990	-1064.77148	70.78428	1443.48950	-1080.13098	24.90424	1270.64746	-1160.66003	265.95752	1349.67297	-903.31274	157.46616	1486.11877	-830.57642	222.69745	1295.96008	-825.97711	264.01212	1161.93774	-807.01794	298.85400	1036.66492	-816.23334	278.64249	897.32239	-798.69263	328.66232	916.60754	-788.92346	332.47989	850.16449	-1265.86682	112.16089	1486.48560	-1355.02222	100.03378	1294.52698	-1373.12451	45.98792	1156.25586	-1380.53540	-25.67711	1057.89856	-1348.03479	-114.02872	960.62878	-1384.97400	-77.39793	938.36462	-1380.04456	-136.46968	897.08081	-960.02441	34.01929	983.24316	-1219.17664	43.67608	959.94080	-1036.63562	248.07025	1023.56616	-1150.06335	255.60713	1023.00195	-875.60663	41.09826	685.00232	-901.39325	2.63524	486.66284	-894.72345	-5.92724	293.37656	-903.76318	-90.92751	83.53613	-960.63000	-74.72707	48.72065	-875.01611	-247.29977	80.30672	-1267.32532	180.84026	665.18616	-1225.10840	231.85054	460.58389	-1225.00085	324.17001	294.93872	-1184.52625	391.39389	112.83749	-1126.09924	433.79440	65.61236	-1209.89990	252.62431	37.57507	-1120.78882	98.24152	1794.86145	-3360.22534	2845.13184	1034.16589			 
117	1.160	-1025.41296	-3.83998	1722.05493	-1167.13733	0.81004	1696.20081	-1011.62170	134.12143	1663.64978	-1153.18042	151.27878	1637.71008	-1085.46838	198.00313	1518.73572	-1095.18115	261.11914	1243.58228	-1062.83606	62.57087	1443.05579	-1078.33740	16.44065	1270.27942	-1158.42908	257.90344	1348.91064	-901.20203	149.08829	1485.43042	-828.47455	214.26787	1295.18591	-824.02692	255.26646	1161.29529	-805.10211	290.13104	1035.78394	-814.04004	270.75183	896.81653	-796.52802	320.55804	916.09460	-786.89215	324.49350	849.53473	-1263.68774	104.41447	1485.92139	-1353.04651	93.10204	1294.09375	-1370.92822	39.75035	1155.45654	-1378.07336	-32.01336	1057.07141	-1345.06384	-120.47232	960.14142	-1381.97131	-83.88964	937.59283	-1376.91174	-143.07884	896.41766	-957.98865	24.89108	983.13947	-1217.15564	35.27089	959.31555	-1034.21118	239.09386	1022.94348	-1147.47546	246.98085	1022.33099	-873.61578	31.90480	684.41650	-900.00024	-5.55364	485.86520	-893.54041	-12.16665	292.34372	-903.69519	-94.55373	81.48135	-960.05273	-77.50703	46.89937	-876.09698	-251.11838	77.28999	-1266.06067	174.44673	665.17603	-1224.54492	226.55518	460.75793	-1224.68774	320.93259	296.24020	-1184.96643	390.34854	114.92307	-1126.59058	433.08783	68.21170	-1210.13721	252.47363	37.63919	-1117.97241	90.72874	1794.65808	-3360.25659	2845.17896	1034.28638			 
118	1.170	-1022.90472	-11.70865	1721.75830	-1164.64038	-7.02017	1695.96802	-1009.12061	126.32565	1662.94482	-1150.62720	143.42870	1637.40515	-1083.16736	189.99547	1518.02502	-1092.68164	252.43964	1242.65393	-1060.75769	54.34934	1442.60303	-1076.33508	7.71343	1270.01929	-1155.89417	249.74847	1347.94080	-898.99664	140.68419	1484.74170	-826.19891	205.40681	1294.29272	-821.83331	246.31607	1160.47449	-802.56897	281.04977	1035.03955	-811.80798	262.37943	895.94543	-794.19269	312.04315	915.49707	-784.51312	316.14249	848.96918	-1261.53186	96.78888	1485.45105	-1351.00330	86.14806	1293.67273	-1368.69153	33.63277	1154.68909	-1375.52527	-38.09325	1056.19006	-1342.31921	-126.74422	959.43481	-1378.92419	-90.08687	936.65558	-1373.77466	-149.28000	895.53046	-955.73114	15.44084	983.20111	-1214.98755	26.74213	958.66541	-1031.55396	229.87781	1022.34808	-1144.75134	238.20621	1021.69604	-871.70813	22.82688	683.74591	-898.53711	-13.38799	484.92953	-892.38489	-17.94959	291.22861	-903.50952	-97.66312	79.32774	-960.01349	-79.96165	44.61929	-877.47229	-254.31099	74.07716	-1264.77673	167.84366	665.20203	-1224.09387	220.91241	460.98517	-1224.38867	317.39648	297.57895	-1185.38770	389.19888	117.08063	-1126.93079	432.48718	71.00662	-1210.49854	252.29922	37.67976	-1115.01111	83.07924	1794.06580	-3357.53662	2845.86963	1034.37000			 
119	1.180	-1020.05383	-19.31299	1721.02490	-1161.88464	-14.63192	1695.91919	-1006.56696	118.49931	1662.32043	-1148.01880	135.65163	1636.95105	-1080.72168	181.88144	1517.27576	-1090.08264	243.65300	1241.70105	-1058.63599	46.04062	1442.19836	-1074.31604	-0.93627	1269.71948	-1153.32422	241.45979	1346.98352	-896.77448	132.12674	1483.99084	-823.90015	196.49612	1293.52930	-819.52863	237.21902	1159.53076	-800.39087	272.45279	1034.56494	-809.56171	253.35376	894.91492	-791.76648	303.14734	914.72614	-782.16742	307.36179	848.30731	-1259.28931	89.15148	1484.95996	-1348.95032	79.23488	1293.24634	-1366.10083	27.58116	1153.65552	-1372.93042	-44.04628	1055.17590	-1339.37781	-132.61073	958.51361	-1375.99121	-95.98928	935.60925	-1370.59619	-155.14247	894.44794	-953.35559	5.75226	983.19305	-1212.68103	18.06743	958.00165	-1028.70789	220.48056	1021.66290	-1141.77576	229.11299	1020.92065	-869.76727	13.48845	683.04041	-897.02344	-21.00169	483.78632	-891.05957	-23.34316	289.87881	-903.46820	-100.13864	76.73261	-959.58984	-81.13274	42.15406	-879.12518	-256.97189	70.58283	-1263.36597	160.93898	665.24976	-1223.58044	214.73604	461.19946	-1224.15149	313.46869	299.09216	-1185.95117	387.84659	119.51579	-1127.51147	431.66595	74.02058	-1210.76257	252.05128	37.78914	-1112.00000	75.47173	1793.59082	-3357.47510	2845.82764	1034.27625			 
120	1.190	-1017.58270	-27.32474	1720.70508	-1159.03271	-22.38632	1695.68604	-1003.66205	110.56222	1661.70251	-1145.44128	127.84915	1636.38525	-1078.22729	173.77928	1516.46277	-1087.26147	234.69106	1240.59180	-1056.35120	37.74076	1441.74597	-1072.07617	-9.74270	1269.47192	-1150.68054	233.20789	1345.79211	-894.32684	123.78851	1483.42114	-821.44421	187.58945	1292.64233	-817.17072	227.91711	1158.64502	-797.99481	263.00797	1033.68188	-807.07275	244.11938	894.19989	-789.36145	293.50150	913.75446	-779.68823	298.11954	847.48267	-1257.14429	81.53746	1484.62256	-1346.54834	72.30246	1292.77588	-1363.70618	21.64457	1152.76868	-1370.39893	-49.68985	1054.24463	-1336.56409	-138.38464	957.28040	-1373.03845	-101.60735	934.42908	-1367.48584	-160.71869	893.17297	-950.92773	-4.10951	983.21606	-1210.27087	9.31722	957.31592	-1025.63525	210.88086	1020.97729	-1138.63232	219.83994	1020.07599	-867.83942	4.11962	682.19543	-895.47272	-28.31343	482.44818	-889.86884	-28.13764	288.36569	-903.32349	-102.05293	74.01886	-959.07056	-82.47466	39.51697	-881.06812	-259.06918	66.75445	-1261.82300	153.56154	665.22797	-1223.13708	208.16101	461.43271	-1223.94434	309.23965	300.70041	-1186.69458	386.53705	122.28869	-1128.44031	430.58807	77.52316	-1211.22925	251.85570	37.74910	-1108.95496	67.96930	1793.23694	-3357.31860	2845.81982	1034.36841			 
